HIERARCHY
ROOT cube_med
{
	OFFSET 0.000000 0.000000 0.000000
	CHANNELS 6 Xposition Yposition Zposition Yrotation Xrotation Zrotation
	End Site
	{
		OFFSET 0.000000 0.000000 0.000000
	}
}
MOTION
Frames: 116
Frame Time: 0.008333334
-1.479219 2.540409 2.975979 141.163800 -17.510710 -11.929170 
-1.471502 2.547026 2.974570 140.495900 -17.828830 -11.594640 
-1.462260 2.552953 2.972137 139.827300 -17.869200 -11.253050 
-1.451251 2.560412 2.969907 139.285700 -17.923130 -10.851530 
-1.438701 2.567464 2.966574 138.761500 -17.712460 -10.451970 
-1.424236 2.575234 2.961787 138.369900 -17.342770 -10.043490 
-1.409393 2.582428 2.956185 138.314000 -16.944980 -9.623718 
-1.397046 2.588762 2.948023 138.448700 -16.589660 -9.313416 
-1.388994 2.593713 2.938570 138.438300 -16.055020 -9.295563 
-1.380703 2.599121 2.929285 138.567400 -15.751160 -9.411224 
-1.372370 2.604532 2.921663 138.657000 -15.361150 -9.254578 
-1.363058 2.609769 2.915403 138.689400 -14.966280 -9.231171 
-1.353195 2.614353 2.909520 138.626000 -14.635890 -9.003571 
-1.344813 2.618854 2.905069 138.627200 -14.427090 -8.866943 
-1.338822 2.623908 2.901614 138.467300 -14.474730 -8.666046 
-1.334030 2.628337 2.898925 138.251000 -14.595860 -8.622375 
-1.329210 2.632999 2.894840 137.990400 -14.556550 -8.655609 
-1.322999 2.637753 2.890558 137.699600 -14.436130 -8.604126 
-1.312871 2.643290 2.885083 137.455500 -14.189270 -8.329803 
-1.299321 2.649053 2.878757 137.214500 -13.814360 -8.073792 
-1.284471 2.655444 2.872515 136.884900 -13.304570 -7.651154 
-1.269715 2.661999 2.864032 136.741500 -12.642360 -7.469208 
-1.253644 2.667947 2.854725 136.730500 -12.044800 -7.286346 
-1.240382 2.672855 2.846477 136.650700 -11.484650 -6.938232 
-1.226867 2.677444 2.837564 136.555100 -10.900820 -6.905151 
-1.213964 2.681494 2.829570 136.417700 -10.290280 -6.715851 
-1.199355 2.686095 2.823342 136.181200 -9.773926 -6.388428 
-1.178882 2.690315 2.816991 135.871200 -8.896576 -5.969910 
-1.154213 2.694916 2.811005 135.669800 -8.204498 -5.181946 
-1.123779 2.700296 2.806633 135.459500 -7.089355 -4.352783 
-1.090226 2.705523 2.802517 135.133900 -5.705444 -3.350494 
-1.049248 2.710629 2.797161 135.102300 -4.245483 -2.202484 
-1.004231 2.714618 2.792775 135.062100 -2.445282 -0.863770 
-0.955022 2.716470 2.788681 135.144100 -0.479004 0.555530 
-0.902770 2.716132 2.783185 135.298700 1.485795 2.047148 
-0.851563 2.713624 2.777523 135.517000 3.406386 3.335149 
-0.801561 2.708805 2.772335 135.567200 5.405838 4.710312 
-0.752865 2.703397 2.767814 135.452300 7.060845 6.070928 
-0.706884 2.696237 2.767135 135.154800 8.513065 7.353993 
-0.663089 2.689053 2.768679 134.720200 9.681537 8.351648 
-0.620831 2.681788 2.773397 133.957300 10.859730 9.423131 
-0.579383 2.674167 2.779572 133.533600 11.886480 10.516420 
-0.539617 2.666123 2.786312 132.973500 12.945190 11.710740 
-0.501894 2.659245 2.794641 132.798800 13.690190 12.860370 
-0.468062 2.653334 2.804796 132.094900 14.380840 13.581440 
-0.437367 2.648359 2.817050 131.157900 14.971590 14.458030 
-0.408468 2.645306 2.829341 130.364600 15.284200 15.219030 
-0.383193 2.642003 2.842677 129.445000 15.624180 15.866470 
-0.357190 2.639018 2.854733 128.944500 15.773870 16.571350 
-0.334150 2.637825 2.865462 128.112900 16.071060 17.045820 
-0.312444 2.636611 2.875137 127.648200 16.336160 17.545010 
-0.290847 2.632830 2.881936 127.226100 16.688670 18.147450 
-0.271552 2.631860 2.886880 127.078300 16.970010 18.546930 
-0.252927 2.629791 2.890500 127.044800 17.216190 18.969980 
-0.237894 2.629072 2.891335 127.036800 17.464400 19.387270 
-0.225694 2.629149 2.891094 127.137900 17.771990 19.468840 
-0.215774 2.629228 2.888956 127.180100 17.966290 19.652190 
-0.209788 2.630556 2.886010 127.458600 18.082720 19.692770 
-0.206615 2.632771 2.881326 127.819800 18.047160 19.632280 
-0.206345 2.634308 2.874350 128.347100 18.071120 19.576020 
-0.209038 2.636381 2.865352 129.039000 18.092740 19.511020 
-0.214626 2.639735 2.854413 129.819900 18.029600 19.192000 
-0.223914 2.642327 2.844114 130.342500 17.935220 18.896880 
-0.235737 2.645504 2.833705 131.159500 17.757970 18.606180 
-0.249362 2.648654 2.825677 131.787600 17.616530 18.242580 
-0.264593 2.651111 2.819624 132.243700 17.235040 17.840640 
-0.278913 2.653236 2.817267 132.640100 16.943620 17.572400 
-0.293886 2.654446 2.816249 133.079800 16.692540 17.312800 
-0.308803 2.655586 2.817852 133.446800 16.268610 17.255780 
-0.323932 2.656132 2.820249 133.869200 15.953570 17.162870 
-0.342432 2.655681 2.822496 134.111900 15.578470 17.000890 
-0.361807 2.657331 2.824768 134.535800 15.142700 16.698540 
-0.384329 2.658861 2.826485 134.867600 14.494240 16.463140 
-0.409088 2.661116 2.829845 135.288300 13.998510 15.958620 
-0.435165 2.664086 2.831122 135.713100 13.136000 15.343180 
-0.463415 2.666018 2.835840 135.947000 12.642370 14.676340 
-0.491529 2.667136 2.839531 136.235600 11.739930 14.168060 
-0.520644 2.668394 2.844552 136.746700 10.558750 13.357180 
-0.549942 2.667131 2.849249 137.287400 9.405599 12.487890 
-0.574910 2.665466 2.853874 137.426800 8.539725 11.651730 
-0.597197 2.662706 2.856895 137.817400 7.921515 11.110960 
-0.619276 2.659587 2.859313 137.964300 7.735761 10.654780 
-0.639750 2.657144 2.860314 138.136100 7.418606 10.055640 
-0.662669 2.655232 2.861712 138.528100 6.977688 9.506734 
-0.685392 2.654216 2.863596 138.731800 6.645593 9.039977 
-0.708362 2.654157 2.865651 139.337900 6.171512 8.763031 
-0.732045 2.655919 2.868454 140.014600 5.582747 8.394849 
-0.760753 2.657642 2.870464 140.403000 4.763182 7.959365 
-0.794047 2.659174 2.868349 140.451300 3.993258 6.814898 
-0.828147 2.660105 2.861338 140.389500 3.232567 5.415396 
-0.859478 2.659289 2.852642 140.359300 2.629597 4.140570 
-0.888156 2.658425 2.840941 140.524100 2.340769 2.835044 
-0.912503 2.656710 2.825989 140.828800 2.274848 1.725852 
-0.935753 2.654156 2.809303 141.432500 2.473563 0.584584 
-0.956805 2.650750 2.790881 141.871600 2.569578 -0.603149 
-0.976984 2.647621 2.772764 142.434600 2.751388 -1.742798 
-0.998035 2.643865 2.754273 142.981500 3.149112 -2.988586 
-1.018688 2.639722 2.735836 143.525700 3.527366 -4.147095 
-1.041377 2.635557 2.718044 144.098100 3.742780 -5.360352 
-1.064827 2.631440 2.702112 144.805200 3.867458 -6.718933 
-1.089685 2.627611 2.686357 145.519000 4.020030 -7.856354 
-1.114002 2.623214 2.670391 146.360900 4.359000 -9.002930 
-1.137463 2.618233 2.654406 147.050300 4.687451 -10.161250 
-1.162571 2.612155 2.638866 148.121300 5.085398 -11.225860 
-1.187894 2.605853 2.622062 149.138000 5.547496 -12.347810 
-1.215400 2.598648 2.606721 150.393500 6.275965 -13.682680 
-1.244309 2.590390 2.594845 151.624300 6.722671 -14.970830 
-1.275422 2.584559 2.589542 152.453200 6.735439 -16.392030 
-1.307971 2.578602 2.590452 153.177400 6.351992 -17.744080 
-1.341062 2.574100 2.597291 154.251900 5.749099 -18.858090 
-1.375113 2.569241 2.608707 155.216100 5.217885 -19.994350 
-1.408462 2.565763 2.623530 156.255000 4.342172 -20.991640 
-1.439791 2.562230 2.640392 157.302600 3.489208 -21.814760 
-1.470779 2.558069 2.659848 158.406400 2.666009 -22.730010 
-1.499987 2.553747 2.680833 159.374200 1.886683 -23.494510 
-1.529077 2.549280 2.701099 160.516200 1.125043 -24.347900 
